<svg width="557" height="116" viewBox="0 0 557 116" fill="none" xmlns="http://www.w3.org/2000/svg">
<path d="M54.432 104.912C61.92 97.28 65.808 88.208 65.808 77.696V0.799998H46.368V77.696C46.368 83.024 44.496 87.488 40.608 91.232L49.104 99.728L54.432 104.912ZM13.824 91.088L0 104.912C7.488 112.256 16.56 116 27.216 116V96.704C22.032 96.704 17.568 94.832 13.824 91.088ZM49.104 99.728L54.432 104.912L49.104 99.728ZM143.719 114.416V116H220.471V96.704H162.871L143.719 114.416ZM143.719 0.799998L162.871 20.096H220.471V0.799998H143.719ZM143.719 48.896V68.048H162.871H220.471V48.896H162.871H143.719ZM355.074 77.696L372.066 43.856L388.914 77.696H410.514L372.066 0.799998L314.466 116H335.778L345.57 96.704L355.074 77.696ZM420.018 96.848H398.706L408.21 116H429.666L420.018 96.848ZM537.155 0.799998V69.776L460.547 0.799998V29.888L556.307 116V115.856V115.712V0.799998H537.155Z" fill="white"/>
</svg>
